<svg width="14" height="14" viewBox="0 0 14 14" fill="none" xmlns="http://www.w3.org/2000/svg">
<path d="M13.9999 6.96912C14.006 8.35359 13.6015 9.70879 12.8374 10.8633C12.0733 12.0179 10.984 12.9199 9.7072 13.4553C8.43044 13.9907 7.02358 14.1356 5.66453 13.8714C4.30547 13.6073 3.05526 12.9461 2.072 11.9714C1.08874 10.9967 0.416591 9.75236 0.14055 8.39567C-0.135491 7.03898 -0.00302429 5.63091 0.521199 4.34951C1.04542 3.06811 1.93786 1.97094 3.08565 1.19674C4.23344 0.422545 5.58503 0.00609952 6.9695 6.65526e-05C8.82593 -0.00802303 10.6095 0.721658 11.928 2.0286C13.2465 3.33554 13.9917 5.11269 13.9999 6.96912Z" fill="#8DC63F"/>
<path d="M13.4754 6.97156C13.4812 8.252 13.1072 9.5054 12.4006 10.5733C11.694 11.6411 10.6867 12.4755 9.50595 12.9708C8.32519 13.4662 7.02407 13.6003 5.76711 13.3561C4.51015 13.112 3.35381 12.5006 2.44433 11.5993C1.53484 10.698 0.913059 9.54719 0.65761 8.29248C0.40216 7.03777 0.524517 5.73549 1.00921 4.55032C1.49389 3.36515 2.31915 2.35032 3.3806 1.63418C4.44206 0.918031 5.69204 0.53273 6.97247 0.526998C8.68936 0.519447 10.3389 1.19414 11.5584 2.40269C12.7779 3.61124 13.4675 5.25468 13.4754 6.97156Z" fill="#F9E988"/>
<path d="M7.11904 0.946589C7.53058 0.873542 7.95177 0.873542 8.36331 0.946589C8.77884 1.01238 9.1805 1.14696 9.55179 1.34478C9.92107 1.54768 10.2401 1.82311 10.5577 2.0813C10.8752 2.33949 11.1912 2.60376 11.492 2.89289C11.7991 3.17752 12.067 3.5016 12.2889 3.85666C12.5173 4.20891 12.7045 4.58624 12.8469 4.98123C13.1172 5.77557 13.2111 6.6313 13.0761 7.44746H13.0361C12.9006 6.6384 12.717 5.86739 12.4274 5.13391C12.2914 4.76456 12.1315 4.40449 11.9485 4.05601C11.7577 3.70748 11.5473 3.36996 11.3185 3.04507C11.0859 2.71661 10.8007 2.42871 10.4745 2.19289C10.1458 1.95855 9.76788 1.80688 9.40215 1.66282C9.03643 1.51876 8.67375 1.36963 8.2923 1.26007C7.91085 1.1505 7.52331 1.06833 7.11853 0.988691L7.11904 0.946589Z" fill="white"/>
<path d="M10.2836 4.6865C9.81391 4.55056 9.32695 4.35781 8.83391 4.16302C8.80551 4.03926 8.69594 3.88505 8.47427 3.69686C8.15217 3.41737 7.54703 3.42447 7.02406 3.54824C6.44681 3.4123 5.87667 3.36411 5.32935 3.49752C0.852899 4.73063 3.39116 7.73911 1.74768 10.7633C1.98152 11.2594 4.50203 14.1537 8.14913 13.3772C8.14913 13.3772 6.90181 10.3798 9.71652 8.94128C11.9996 7.77005 13.6492 5.6031 10.2836 4.6865Z" fill="#8BC53F"/>
<path d="M10.8366 6.65519C10.8369 6.70886 10.8213 6.76142 10.7917 6.80621C10.7621 6.85101 10.7199 6.88603 10.6705 6.90684C10.621 6.92766 10.5664 6.93334 10.5137 6.92316C10.461 6.91299 10.4126 6.88741 10.3744 6.84967C10.3362 6.81193 10.3101 6.76373 10.2993 6.71114C10.2886 6.65856 10.2936 6.60397 10.3139 6.55427C10.3342 6.50456 10.3687 6.46199 10.4132 6.43192C10.4576 6.40185 10.51 6.38564 10.5637 6.38534C10.6356 6.38507 10.7047 6.41331 10.7559 6.46389C10.807 6.51447 10.836 6.58326 10.8366 6.65519Z" fill="white"/>
<path d="M7.02393 3.54623C7.35009 3.56957 8.52943 3.95203 8.83378 4.16102C8.58016 3.42551 7.72646 3.32761 7.02393 3.54623Z" fill="#009345"/>
<path d="M7.33446 5.4062C7.33456 5.65382 7.26122 5.89591 7.12372 6.10185C6.98622 6.30779 6.79074 6.46833 6.562 6.56316C6.33326 6.65799 6.08153 6.68285 5.83865 6.6346C5.59578 6.58636 5.37267 6.46717 5.19754 6.29211C5.02241 6.11705 4.90313 5.89398 4.85478 5.65113C4.80644 5.40827 4.8312 5.15654 4.92593 4.92775C5.02067 4.69897 5.18113 4.50342 5.38701 4.36584C5.59289 4.22826 5.83495 4.15483 6.08257 4.15483C6.24695 4.15476 6.40973 4.18708 6.56161 4.24994C6.71349 4.31279 6.8515 4.40496 6.96776 4.52117C7.08401 4.63738 7.17623 4.77535 7.23915 4.92721C7.30207 5.07906 7.33446 5.24183 7.33446 5.4062Z" fill="white"/>
<path d="M6.96331 5.41736C6.96331 5.59153 6.91166 5.76178 6.8149 5.90659C6.71814 6.0514 6.58062 6.16426 6.41971 6.23091C6.25881 6.29756 6.08175 6.315 5.91094 6.28102C5.74012 6.24705 5.58322 6.16318 5.46006 6.04003C5.33691 5.91688 5.25305 5.75997 5.21907 5.58916C5.18509 5.41834 5.20253 5.24129 5.26918 5.08038C5.33583 4.91948 5.44869 4.78195 5.5935 4.68519C5.73831 4.58843 5.90857 4.53679 6.08273 4.53679C6.31627 4.53679 6.54025 4.62956 6.70539 4.7947C6.87053 4.95984 6.96331 5.18382 6.96331 5.41736Z" fill="#58595B"/>
<path d="M11.8508 7.20714C10.8363 7.92185 9.68279 8.4641 8.04641 8.4641C7.28047 8.4641 7.12525 7.6525 6.61902 8.04917C6.35779 8.25511 5.43663 8.71569 4.70568 8.68069C3.97474 8.64569 2.78982 8.21707 2.4596 6.65678C2.32873 8.21707 2.26177 9.36649 1.6759 10.6838C2.84257 12.552 5.62431 13.9931 8.14938 13.3722C7.878 11.4776 9.53365 9.62214 10.4665 8.67258C10.8216 8.31294 11.4962 7.72606 11.8508 7.20613V7.20714Z" fill="#8BC53F"/>
<path d="M11.811 7.25356C11.496 7.54066 11.1211 7.7532 10.7397 7.94088C10.3536 8.1242 9.9511 8.27077 9.53753 8.37863C9.12361 8.48566 8.69195 8.56631 8.2547 8.52675C7.81745 8.48718 7.37057 8.33856 7.08093 8.01088L7.09463 7.99515C7.4497 8.22544 7.85956 8.3066 8.26738 8.31827C8.68076 8.33084 9.09423 8.29681 9.49999 8.21682C9.90987 8.13102 10.3108 8.00704 10.6976 7.84653C11.0846 7.68675 11.4676 7.5016 11.7973 7.23783L11.811 7.25356Z" fill="#58595B"/>
</svg>
