<svg width="28" height="28" viewBox="0 0 28 28" fill="none" xmlns="http://www.w3.org/2000/svg">
    <circle cx="14" cy="14" r="14" fill="url(#paint0_linear)"/>
    <circle cx="14" cy="14" r="14" fill="url(#paint1_linear)"/>
    <path fill-rule="evenodd" clip-rule="evenodd" d="M9.73654 8.43168C9.73654 7.99237 10.0927 7.63623 10.532 7.63623H13.1835C13.6228 7.63623 13.979 7.99237 13.979 8.43168C13.979 8.871 13.6228 9.22714 13.1835 9.22714H10.532C10.0927 9.22714 9.73654 8.871 9.73654 8.43168ZM18.1723 9.2173C18.3242 9.62953 18.1132 10.0868 17.7009 10.2387L10.807 12.7786C10.3948 12.9304 9.93746 12.7194 9.78559 12.3072C9.63372 11.8949 9.84478 11.4376 10.257 11.2858L17.1509 8.74588C17.5632 8.59401 18.0205 8.80507 18.1723 9.2173ZM18.1723 15.6926C18.3242 16.1048 18.1132 16.5621 17.7009 16.714L10.807 19.2538C10.3948 19.4057 9.93746 19.1947 9.78559 18.7824C9.63372 18.3702 9.84478 17.9129 10.257 17.761L17.1509 15.2212C17.5632 15.0693 18.0205 15.2803 18.1723 15.6926ZM13.979 19.568C13.979 19.1287 14.3351 18.7726 14.7744 18.7726H17.4259C17.8653 18.7726 18.2214 19.1287 18.2214 19.568C18.2214 20.0074 17.8653 20.3635 17.4259 20.3635H14.7744C14.3351 20.3635 13.979 20.0074 13.979 19.568Z" fill="white"/>
    <path fill-rule="evenodd" clip-rule="evenodd" d="M18.1684 12.3883C18.3261 12.7983 18.1215 13.2586 17.7115 13.4163L10.8175 16.0678C10.4075 16.2255 9.94727 16.0209 9.78956 15.6109C9.63186 15.2009 9.83641 14.7406 10.2464 14.5829L17.1404 11.9314C17.5504 11.7737 18.0107 11.9783 18.1684 12.3883Z" fill="white"/>
    <defs>
        <linearGradient id="paint0_linear" x1="27.475" y1="-2.69576e-06" x2="-1.69244" y2="5.36901" gradientUnits="userSpaceOnUse">
            <stop stop-color="#2663FF"/>
            <stop offset="1" stop-color="#FF3828"/>
        </linearGradient>
        <linearGradient id="paint1_linear" x1="14" y1="28" x2="14" y2="14" gradientUnits="userSpaceOnUse">
            <stop stop-color="#FFD18B"/>
            <stop offset="1" stop-color="#FF0000" stop-opacity="0"/>
        </linearGradient>
    </defs>
</svg>
