<svg width="18" height="13" viewBox="0 0 18 13" fill="none" xmlns="http://www.w3.org/2000/svg">
    <mask id="path-1-inside-1" fill="white">
        <path fill-rule="evenodd" clip-rule="evenodd" d="M17.7106 1.70668L7.71059 11.7067L7.00348 12.4138L6.29637 11.7067L0.296372 5.70668L1.71059 4.29247L7.00348 9.58536L16.2964 0.292466L17.7106 1.70668Z"/>
    </mask>
    <path fill-rule="evenodd" clip-rule="evenodd" d="M17.7106 1.70668L7.71059 11.7067L7.00348 12.4138L6.29637 11.7067L0.296372 5.70668L1.71059 4.29247L7.00348 9.58536L16.2964 0.292466L17.7106 1.70668Z" fill="white"/>
    <path d="M7.71059 11.7067L8.41769 12.4138L8.41769 12.4138L7.71059 11.7067ZM17.7106 1.70668L18.4177 2.41379L19.1248 1.70668L18.4177 0.999573L17.7106 1.70668ZM7.00348 12.4138L6.29637 13.1209L7.00348 13.828L7.71059 13.1209L7.00348 12.4138ZM6.29637 11.7067L7.00348 10.9996L7.00348 10.9996L6.29637 11.7067ZM0.296372 5.70668L-0.410735 4.99957L-1.11784 5.70668L-0.410734 6.41379L0.296372 5.70668ZM1.71059 4.29247L2.41769 3.58536L1.71059 2.87825L1.00348 3.58536L1.71059 4.29247ZM7.00348 9.58536L6.29637 10.2925L7.00348 10.9996L7.71059 10.2925L7.00348 9.58536ZM16.2964 0.292466L17.0035 -0.414641L16.2964 -1.12175L15.5893 -0.414641L16.2964 0.292466ZM8.41769 12.4138L18.4177 2.41379L17.0035 0.999573L7.00348 10.9996L8.41769 12.4138ZM7.71059 13.1209L8.41769 12.4138L7.00348 10.9996L6.29637 11.7067L7.71059 13.1209ZM5.58927 12.4138L6.29637 13.1209L7.71059 11.7067L7.00348 10.9996L5.58927 12.4138ZM-0.410734 6.41379L5.58927 12.4138L7.00348 10.9996L1.00348 4.99957L-0.410734 6.41379ZM1.00348 3.58536L-0.410735 4.99957L1.00348 6.41379L2.41769 4.99957L1.00348 3.58536ZM7.71059 8.87825L2.41769 3.58536L1.00348 4.99957L6.29637 10.2925L7.71059 8.87825ZM15.5893 -0.414641L6.29637 8.87825L7.71059 10.2925L17.0035 0.999573L15.5893 -0.414641ZM18.4177 0.999573L17.0035 -0.414641L15.5893 0.999573L17.0035 2.41379L18.4177 0.999573Z" fill="white" mask="url(#path-1-inside-1)"/>
</svg>


