<svg width="68" height="68" viewBox="0 0 68 68" fill="none" xmlns="http://www.w3.org/2000/svg">
    <circle cx="34" cy="34" r="34" fill="url(#paint0_linear)"/>
    <circle cx="34" cy="34" r="34" fill="url(#paint1_linear)"/>
    <path fill-rule="evenodd" clip-rule="evenodd" d="M23.6454 20.477C23.6454 19.4101 24.5103 18.5452 25.5772 18.5452H32.0166C33.0835 18.5452 33.9485 19.4101 33.9485 20.477C33.9485 21.5439 33.0835 22.4088 32.0166 22.4088H25.5772C24.5103 22.4088 23.6454 21.5439 23.6454 20.477ZM44.1324 22.3849C44.5012 23.3861 43.9886 24.4966 42.9875 24.8655L26.2451 31.0337C25.2439 31.4026 24.1334 30.89 23.7645 29.8889C23.3957 28.8877 23.9083 27.7772 24.9094 27.4083L41.6518 21.2401C42.653 20.8712 43.7635 21.3838 44.1324 22.3849ZM44.1324 38.1106C44.5012 39.1117 43.9886 40.2223 42.9875 40.5912L26.2451 46.7594C25.2439 47.1283 24.1334 46.6157 23.7645 45.6146C23.3957 44.6134 23.9083 43.5028 24.9094 43.134L41.6518 36.9657C42.653 36.5969 43.7635 37.1095 44.1324 38.1106ZM33.9485 47.5225C33.9485 46.4556 34.8134 45.5907 35.8803 45.5907H42.3197C43.3866 45.5907 44.2515 46.4556 44.2515 47.5225C44.2515 48.5894 43.3866 49.4543 42.3197 49.4543H35.8803C34.8134 49.4543 33.9485 48.5894 33.9485 47.5225Z" fill="white"/>
    <path fill-rule="evenodd" clip-rule="evenodd" d="M44.1226 30.0857C44.5056 31.0815 44.0088 32.1993 43.013 32.5823L26.2706 39.0216C25.2748 39.4046 24.1571 38.9079 23.7741 37.9121C23.3911 36.9163 23.8878 35.7985 24.8836 35.4155L41.6261 28.9761C42.6219 28.5931 43.7396 29.0899 44.1226 30.0857Z" fill="white"/>
    <defs>
        <linearGradient id="paint0_linear" x1="66.725" y1="-6.54684e-06" x2="-4.11021" y2="13.039" gradientUnits="userSpaceOnUse">
            <stop stop-color="#2663FF"/>
            <stop offset="1" stop-color="#FF3828"/>
        </linearGradient>
        <linearGradient id="paint1_linear" x1="34" y1="68" x2="34" y2="34" gradientUnits="userSpaceOnUse">
            <stop stop-color="#FFD18B"/>
            <stop offset="1" stop-color="#FF0000" stop-opacity="0"/>
        </linearGradient>
    </defs>
</svg>
